<svg width="32" height="32" viewBox="0 0 32 32" fill="none" xmlns="http://www.w3.org/2000/svg">
<circle cx="16" cy="16" r="16" fill="#BF83FF"/>
<path d="M14.3996 16.8002C17.4924 16.8002 20.0002 18.591 20.0002 20.8002C20.0001 21.6837 19.2832 22.3998 18.3996 22.3998H10.3996C9.5162 22.3996 8.80011 21.6836 8.8 20.8002C8.8 18.5911 11.307 16.8003 14.3996 16.8002ZM14.3996 9.59998C16.1669 9.59998 17.5998 11.0329 17.5998 12.8002C17.5997 14.5674 16.1669 16.0004 14.3996 16.0004C12.6325 16.0002 11.2005 14.5673 11.2004 12.8002C11.2004 11.033 12.6325 9.60019 14.3996 9.59998ZM20.8 11.1996C21.2418 11.1996 21.5998 11.5585 21.5998 12.0004V12.8002H22.3996C22.8414 12.8002 23.2004 13.1582 23.2004 13.6C23.2004 14.0418 22.8414 14.3998 22.3996 14.3998H21.5998V15.1996C21.5998 15.6414 21.2418 16.0004 20.8 16.0004C20.3582 16.0004 20.0002 15.6414 20.0002 15.1996V14.3998H19.2004C18.7586 14.3998 18.3996 14.0418 18.3996 13.6C18.3996 13.1582 18.7586 12.8002 19.2004 12.8002H20.0002V12.0004C20.0002 11.5585 20.3582 11.1996 20.8 11.1996Z" fill="white"/>
</svg>
