<svg width="32" height="32" viewBox="0 0 32 32" fill="none" xmlns="http://www.w3.org/2000/svg">
<circle cx="16" cy="16" r="16" fill="#FF947A"/>
<path fill-rule="evenodd" clip-rule="evenodd" d="M9.60001 11.2C9.60001 9.43269 11.0327 8 12.8 8H17.6V11.2C17.6 12.9673 19.0327 14.4 20.8 14.4H22.4V20.8C22.4 22.5673 20.9673 24 19.2 24H12.8C11.0327 24 9.60001 22.5673 9.60001 20.8V11.2ZM12.8 15.2C12.3582 15.2 12 15.5582 12 16C12 16.4418 12.3582 16.8 12.8 16.8H14.4C14.8418 16.8 15.2 16.4418 15.2 16C15.2 15.5582 14.8418 15.2 14.4 15.2H12.8ZM12.8 18.4C12.3582 18.4 12 18.7582 12 19.2C12 19.6418 12.3582 20 12.8 20H16C16.4418 20 16.8 19.6418 16.8 19.2C16.8 18.7582 16.4418 18.4 16 18.4H12.8ZM19.7454 9.75903L19.6407 11.3303C19.6085 11.8132 20.0092 12.2139 20.4921 12.1817L22.0634 12.077C22.7492 12.0313 23.0619 11.1991 22.5759 10.7131L21.1094 9.24656C20.6233 8.76055 19.7912 9.07323 19.7454 9.75903Z" fill="white"/>
</svg>
