<svg width="32" height="32" viewBox="0 0 32 32" fill="none" xmlns="http://www.w3.org/2000/svg">
<circle cx="16" cy="16" r="16" fill="#FA5A7D"/>
<path fill-rule="evenodd" clip-rule="evenodd" d="M10.4 8.8C9.51635 8.8 8.8 9.51636 8.8 10.4V21.6C8.8 22.4836 9.51635 23.2 10.4 23.2H21.6C22.4837 23.2 23.2 22.4836 23.2 21.6V10.4C23.2 9.51636 22.4837 8.8 21.6 8.8H10.4ZM12.8 16.8C12.8 16.3582 12.4418 16 12 16C11.5582 16 11.2 16.3582 11.2 16.8V20C11.2 20.4418 11.5582 20.8 12 20.8C12.4418 20.8 12.8 20.4418 12.8 20V16.8ZM16 13.6C16.4418 13.6 16.8 13.9582 16.8 14.4V20C16.8 20.4418 16.4418 20.8 16 20.8C15.5582 20.8 15.2 20.4418 15.2 20V14.4C15.2 13.9582 15.5582 13.6 16 13.6ZM20.8 12C20.8 11.5582 20.4418 11.2 20 11.2C19.5582 11.2 19.2 11.5582 19.2 12V20C19.2 20.4418 19.5582 20.8 20 20.8C20.4418 20.8 20.8 20.4418 20.8 20V12Z" fill="white"/>
</svg>
