<svg width="32" height="32" viewBox="0 0 32 32" fill="none" xmlns="http://www.w3.org/2000/svg">
<circle cx="16" cy="16" r="16" fill="#3CD856"/>
<path fill-rule="evenodd" clip-rule="evenodd" d="M19.7009 10.6122L17.061 10.9894C16.6577 11.047 16.3282 11.2392 16.0929 11.5049L9.93339 17.6644C9.30855 18.2893 9.30853 19.3023 9.93339 19.9272L12.1961 22.1899C12.821 22.8148 13.834 22.8148 14.4589 22.1899L20.6184 16.0304C20.8841 15.7951 21.0763 15.4656 21.1339 15.0623L21.5111 12.4224C21.662 11.3665 20.7568 10.4614 19.7009 10.6122ZM17.853 14.2703C18.1654 14.5827 18.6719 14.5828 18.9844 14.2703C19.2968 13.9579 19.2968 13.4514 18.9844 13.139C18.672 12.8266 18.1654 12.8265 17.853 13.139C17.5406 13.4514 17.5406 13.9579 17.853 14.2703Z" fill="white"/>
</svg>
